<svg xmlns="http://www.w3.org/2000/svg" width="720" height="720" viewBox="0 0 720 720" role="img" aria-labelledby="title desc">
  <title id="title">联系二维码占位图</title>
  <desc id="desc">用于开源版本的微信二维码占位图，部署时可在后台替换</desc>
  <rect width="720" height="720" rx="56" fill="#fffaf0"/>
  <rect x="64" y="64" width="592" height="592" rx="42" fill="none" stroke="#cbbfa9" stroke-width="18"/>
  <g fill="#2b2821">
    <rect x="116" y="116" width="128" height="128" rx="18"/>
    <rect x="476" y="116" width="128" height="128" rx="18"/>
    <rect x="116" y="476" width="128" height="128" rx="18"/>
    <rect x="154" y="154" width="52" height="52" rx="8" fill="#fffaf0"/>
    <rect x="514" y="154" width="52" height="52" rx="8" fill="#fffaf0"/>
    <rect x="154" y="514" width="52" height="52" rx="8" fill="#fffaf0"/>
    <rect x="308" y="126" width="44" height="44" rx="10"/>
    <rect x="382" y="126" width="70" height="44" rx="10"/>
    <rect x="302" y="210" width="210" height="34" rx="9"/>
    <rect x="294" y="294" width="132" height="132" rx="18"/>
    <rect x="458" y="294" width="44" height="44" rx="10"/>
    <rect x="532" y="294" width="56" height="44" rx="10"/>
    <rect x="294" y="480" width="58" height="44" rx="10"/>
    <rect x="386" y="480" width="202" height="44" rx="10"/>
    <rect x="294" y="564" width="294" height="40" rx="10"/>
  </g>
  <circle cx="360" cy="360" r="86" fill="#7b3028"/>
  <text x="360" y="372" text-anchor="middle" font-family="Kaiti SC, STKaiti, serif" font-size="36" fill="#fffaf0">扫码联系</text>
  <text x="360" y="672" text-anchor="middle" font-family="PingFang SC, Arial, sans-serif" font-size="24" fill="#70695d">部署后可在后台替换为你的二维码</text>
</svg>
